<svg width="254" height="43" viewBox="0 0 254 43" fill="none" xmlns="http://www.w3.org/2000/svg">
<path d="M9.365 34.6518C16.3306 34.6518 20.0375 28.9896 23.1741 21.7388H21.9928C19.508 27.238 15.8826 31.8818 11.1166 31.8818C7.369 31.8818 5.12859 28.9489 5.12859 23.6126C5.12859 15.5879 10.4241 2.63422 18.0822 2.63422C22.4409 2.63422 23.0519 6.87064 22.2779 12.655H23.2556L26.5143 1.28998L25.5774 1.16777L24.6813 3.32672C24.3147 4.14141 24.0295 4.14141 23.5407 3.44892C22.1965 1.73806 20.4856 0.801159 17.7156 0.801159C7.73561 0.801159 0.199678 13.7956 0.199678 23.7756C0.199678 29.9673 3.13258 34.6518 9.365 34.6518ZM27.2883 34C32.3801 19.0096 35.8426 15.3027 37.7164 15.3027C38.5718 15.3027 38.9792 15.7508 39.7939 15.7508C40.8937 15.7508 41.9528 14.4473 41.9528 13.1845C41.9528 12.2884 41.4233 11.7995 40.4456 11.7995C37.0646 11.7995 33.5615 15.7916 30.0583 24.9161H29.6917L32.095 18.3986C32.7875 16.647 33.3985 15.2213 33.3985 14.1622C33.3985 12.9809 32.706 11.9218 31.2396 11.9218C28.2659 11.9218 25.2108 15.1805 23.337 18.8059H24.3147C25.8626 16.2396 27.6549 14.0807 28.877 14.0807C29.2028 14.0807 29.4065 14.2436 29.4065 14.7732C29.4065 15.3435 28.877 17.0543 28.4289 18.3986L23.2556 34H27.2883ZM52.7303 32.1669C52.1601 32.1669 51.9971 31.8411 51.9971 31.23C51.9971 30.6597 52.5674 29.2748 52.8933 28.3379L58.7591 11.9625L58.1073 11.5959C57.4148 12.4513 56.1113 13.1845 54.4819 13.1845L53.3006 16.4433H53.1784C53.3414 13.8363 52.2415 11.8403 49.5123 11.8403C43.8502 11.8403 37.2919 21.861 37.2919 29.1118C37.2919 32.2484 38.4324 34.4481 40.9987 34.4481C44.6241 34.4481 48.3717 27.9713 50.327 23.7348H50.6936L49.105 28.2157C48.4939 29.8451 48.0051 30.8227 48.0051 31.7596C48.0051 33.226 48.7383 34.3666 50.8973 34.3666C54.1968 34.3666 56.8853 30.2524 58.3517 26.627H57.4148C56.0299 29.6006 54.2375 32.1669 52.7303 32.1669ZM42.6689 31.4744C41.6912 31.4744 41.3246 30.4561 41.3246 28.623C41.3246 22.8387 46.2535 13.9178 49.8789 13.9178C51.2232 13.9178 51.712 14.9361 51.712 16.6877C51.712 18.032 51.3861 19.3355 50.938 20.639C49.3901 25.1198 45.0722 31.4744 42.6689 31.4744ZM75.0632 0.597485C69.2788 0.597485 66.5089 4.99684 64.6351 11.2293L64.2685 12.4106H60.7245L60.3172 13.7141H63.8611L58.7693 30.4153C56.4474 37.992 55.3883 40.4361 53.3108 40.4361C52.0073 40.4361 51.2741 38.8882 49.7262 38.8882C48.4226 38.8882 47.2006 40.0695 47.2006 41.373C47.2006 42.2284 47.7302 42.9617 49.8076 42.9617C55.7142 42.9617 60.8468 37.0551 63.0464 29.8043L67.9346 13.7141H72.5376L72.945 12.4106H68.3419L68.6271 11.4737C69.4011 8.98885 69.6862 6.54476 70.0935 4.67096C70.5824 2.79716 71.1526 2.38982 71.9266 2.38982C73.3931 2.38982 74.4522 4.30435 76.0001 4.30435C77.1407 4.30435 78.0368 3.16378 78.0368 2.18614C78.0368 1.0863 77.1407 0.597485 75.0632 0.597485ZM79.1277 13.7141H83.1198L83.5271 12.4106H79.5351L81.4496 7.19652H80.1054C78.3131 10.5368 76.3985 12.4106 72.6102 12.6142L72.1621 13.7141H75.2172L70.329 27.6861C69.7995 29.1933 69.3921 30.5783 69.3921 31.6781C69.3921 33.3075 70.2068 34.3666 72.2028 34.3666C75.8282 34.3666 79.0463 30.4153 80.9608 25.8938H79.9832C78.3538 29.1933 76.1541 31.9225 74.321 31.9225C73.6286 31.9225 73.4656 31.5152 73.4656 30.8634C73.4656 30.0895 73.873 28.9082 74.2396 27.7268L79.1277 13.7141ZM87.8985 31.9633C86.0654 31.9633 84.8433 30.7005 84.8433 28.0527C84.8433 27.0751 84.9656 25.9345 85.21 24.7532C90.8314 23.8978 96.575 20.0687 96.575 15.5064C96.575 13.3067 95.0678 11.7995 92.6644 11.7995C86.6764 11.7995 80.7699 21.3722 80.7699 28.2971C80.7699 32.3299 82.8881 34.5703 86.1061 34.5703C89.9759 34.5703 93.2347 30.9449 95.5159 25.3235H94.6197C92.583 29.4377 90.3018 31.9633 87.8985 31.9633ZM92.42 13.3475C93.4384 13.3475 93.7643 14.04 93.7643 15.2213C93.7643 19.0096 89.8945 22.3499 85.5358 23.4497C86.7579 18.643 89.5278 13.3475 92.42 13.3475ZM111.657 32.1669C111.087 32.1669 110.924 31.8411 110.924 31.23C110.924 30.6597 111.413 29.234 111.738 28.2971L120.945 0.516017L120.456 0.230872C119.397 1.12704 117.482 1.41218 112.879 1.41218L112.635 2.34908C115.486 2.34908 116.342 3.16378 115.568 5.44492L111.861 16.4433H111.779C111.901 13.8363 110.842 11.8403 108.113 11.8403C102.451 11.8403 95.8927 21.861 95.8927 29.1118C95.8927 32.2891 97.1554 34.5703 99.5588 34.5703C103.184 34.5703 106.891 28.012 108.846 23.7348H109.417L107.909 28.1749C107.339 29.8451 106.932 30.8227 106.932 31.7596C106.932 33.226 107.665 34.3666 109.824 34.3666C113.123 34.3666 115.812 30.2524 117.278 26.627H116.342C114.957 29.6006 113.164 32.1669 111.657 32.1669ZM101.27 31.6374C100.292 31.6374 99.9254 30.5375 99.9254 28.623C99.9254 22.8387 104.854 13.9178 108.48 13.9178C109.824 13.9178 110.313 14.9361 110.313 16.6877C110.313 18.032 109.987 19.3355 109.539 20.639C107.95 25.2013 103.673 31.6374 101.27 31.6374ZM136.949 34.611C142.978 34.611 147.052 31.393 147.052 26.627C147.052 22.1054 144.322 19.5799 136.99 17.1358C132.143 15.5879 130.636 14.488 130.636 12.5735C130.636 10.2516 132.632 8.74444 135.768 8.74444C139.108 8.74444 141.267 10.5368 142.164 14.0807L146.237 13.1845C145.341 8.13342 141.227 4.87464 135.768 4.87464C130.269 4.87464 126.481 8.01122 126.481 12.5735C126.481 16.5248 128.803 18.643 135.605 20.8834C141.145 22.6757 142.897 24.1014 142.897 26.7085C142.897 29.1526 140.616 30.7412 137.031 30.7412C132.265 30.7412 129.862 28.5823 129.251 23.7756L125.136 24.5903C125.87 31.0671 130.025 34.611 136.949 34.611ZM160.357 15.9952V12.4106H155.062V7.35946H151.07V12.4106H147.689V15.9952H151.07V28.3786C151.07 32.4928 152.658 34 157.017 34H159.339V30.2117H157.383C155.591 30.2117 155.062 29.6821 155.062 28.2971V15.9952H160.357ZM169.951 34.611C172.476 34.611 174.798 33.6334 176.102 32.0855H176.224V34H180.053V12.4106H176.061V25.7308C176.061 28.8674 174.146 30.9042 171.132 30.9042C167.873 30.9042 166.285 29.234 166.285 25.7308V12.4106H162.293V26.4641C162.293 31.6374 165.103 34.611 169.951 34.611ZM192.634 34.611C195.282 34.611 197.644 33.5927 198.989 31.9225H199.07V34H202.818V4.26362H198.826V14.3658H198.744C197.359 12.8179 195.2 11.7995 192.675 11.7995C187.013 11.7995 182.98 16.484 182.98 23.2053C182.98 29.9265 187.013 34.611 192.634 34.611ZM193.123 30.9042C189.375 30.9042 186.972 27.9305 186.972 23.2053C186.972 18.4801 189.334 15.5064 193.001 15.5064C196.3 15.5064 198.826 18.032 198.826 21.2908V25.0791C198.826 28.3379 196.3 30.9042 193.123 30.9042ZM206.356 8.66297H210.715V4.46729H206.356V8.66297ZM206.56 34H210.552V12.4106H206.56V34ZM223.74 34.611C229.891 34.611 234.046 30.008 234.046 23.2053C234.046 16.4026 229.891 11.7995 223.74 11.7995C217.548 11.7995 213.434 16.4026 213.434 23.2053C213.434 30.008 217.548 34.611 223.74 34.611ZM223.74 30.9042C219.829 30.9042 217.426 27.9305 217.426 23.2053C217.426 18.4801 219.829 15.5064 223.74 15.5064C227.65 15.5064 230.054 18.4801 230.054 23.2053C230.054 27.9305 227.65 30.9042 223.74 30.9042ZM245.09 34.611C250.059 34.611 253.277 32.0855 253.277 28.2564C253.277 24.3051 250.385 22.5943 245.131 21.0463C241.627 20.0687 240.283 19.3762 240.283 17.9912C240.283 16.4026 241.79 15.3435 244.153 15.3435C246.597 15.3435 248.267 16.6063 249 19.1725L252.748 18.1949C251.852 14.2844 248.471 11.7995 244.153 11.7995C239.672 11.7995 236.413 14.4473 236.413 18.0727C236.413 21.5352 238.939 23.0423 243.827 24.4273C247.778 25.6086 249.367 26.4641 249.367 28.4193C249.367 30.0487 247.738 31.0671 245.09 31.0671C241.505 31.0671 239.794 29.5599 239.102 25.9345L235.354 26.7492C235.965 31.8003 239.509 34.611 245.09 34.611Z" fill="black"/>
</svg>
