<svg width="32" height="32" viewBox="0 0 32 32" fill="none" xmlns="http://www.w3.org/2000/svg">
<rect width="32" height="32" fill="white"/>
<path d="M13.5729 27.4343C18.2143 27.4343 20.6843 23.6614 22.7743 18.83H21.9871C20.3314 22.4943 17.9157 25.5886 14.74 25.5886C12.2429 25.5886 10.75 23.6343 10.75 20.0786C10.75 14.7314 14.2786 6.1 19.3814 6.1C22.2857 6.1 22.6929 8.92286 22.1771 12.7771H22.8286L25 5.20429L24.3757 5.12286L23.7786 6.56143C23.5343 7.10429 23.3443 7.10429 23.0186 6.64286C22.1229 5.50286 20.9829 4.87857 19.1371 4.87857C12.4871 4.87857 7.46571 13.5371 7.46571 20.1871C7.46571 24.3129 9.42 27.4343 13.5729 27.4343Z" fill="black"/>
</svg>
